<?xml version="1.0" encoding="iso-8859-1"?>
<!-- Generator: Adobe Illustrator 19.0.0, SVG Export Plug-In . SVG Version: 6.00 Build 0)  -->
<svg version="1.1" id="Layer_1" xmlns="http://www.w3.org/2000/svg" xmlns:xlink="http://www.w3.org/1999/xlink" x="0px" y="0px"
	 viewBox="0 0 501.058 501.058" style="enable-background:new 0 0 501.058 501.058;" xml:space="preserve">
<g>
	<g>
		<g>
			<path d="M485.052,295.441L218.694,29.083c-2.02-2.02-4.802-3.071-7.659-2.912L95.044,32.995
				c-2.809-4.523-6.127-8.728-9.953-12.555c-3.905-3.904-10.237-3.904-14.143,0c-3.853,3.853-3.896,10.065-0.146,13.981
				l-37.836,2.226c-5.061,0.298-9.098,4.335-9.396,9.396l-10.475,178.07c-0.167,2.852,0.892,5.639,2.912,7.659l266.357,266.357
				c1.953,1.953,4.512,2.929,7.071,2.929s5.119-0.976,7.071-2.929l188.545-188.545C488.957,305.678,488.957,299.346,485.052,295.441
				z M102.383,90.647c1.752,2.823,2.706,6.074,2.706,9.478c0,4.819-1.877,9.349-5.284,12.756s-7.937,5.284-12.756,5.284
				c-0.331,0-0.657-0.03-0.985-0.048C93.717,110.155,99.216,100.734,102.383,90.647z M289.436,476.915L33.325,220.804L43.014,56.09
				l39.871-2.345c0.945,2.772,1.634,5.589,2.076,8.421c-9.034,0.492-17.924,4.176-24.81,11.061
				c-14.832,14.832-14.832,38.965,0,53.797c7.416,7.416,17.157,11.124,26.898,11.124c9.741,0,19.482-3.708,26.898-11.124
				c14.832-14.832,14.832-38.965,0-53.797c-2.568-2.568-5.42-4.681-8.449-6.359c-0.205-4.792-0.903-9.591-2.117-14.328
				l104.347-6.138l256.111,256.111L289.436,476.915z M83.939,82.375c-2.191,8.366-6.574,16.194-12.99,22.611
				c-0.337,0.337-0.634,0.698-0.913,1.068c-2.194-6.329-0.789-13.639,4.257-18.685C77.017,84.645,80.404,82.989,83.939,82.375z"/>
			<path d="M30.847,20.241c4.783-0.47,9.601-0.25,14.316,0.653c0.635,0.122,1.268,0.18,1.892,0.18c4.702,0,8.894-3.333,9.811-8.122
				c1.039-5.424-2.517-10.664-7.941-11.702c-6.598-1.263-13.338-1.572-20.03-0.914c-5.497,0.539-9.515,5.432-8.976,10.929
				C20.458,16.761,25.351,20.785,30.847,20.241z"/>
			<path d="M127.092,262.96c0.142,5.432,4.59,9.738,9.992,9.738c0.088,0,0.178-0.001,0.267-0.003l147.659-3.865
				c5.521-0.145,9.879-4.737,9.735-10.258c-0.144-5.521-4.724-9.883-10.258-9.735l-147.659,3.865
				C131.306,252.846,126.947,257.439,127.092,262.96z"/>
			<path d="M243.545,305.572c-8.7,0-16.878,3.388-23.03,9.539c-12.698,12.699-12.698,33.361,0,46.06
				c6.152,6.151,14.331,9.539,23.03,9.539c8.699,0,16.878-3.388,23.029-9.539c6.152-6.151,9.54-14.33,9.54-23.03
				s-3.388-16.878-9.539-23.029C260.423,308.959,252.245,305.572,243.545,305.572z M252.433,347.028
				c-2.375,2.375-5.53,3.682-8.888,3.682c-3.358,0-6.514-1.307-8.888-3.682c-2.374-2.374-3.682-5.53-3.682-8.887
				s1.308-6.514,3.682-8.887c2.374-2.375,5.53-3.682,8.888-3.682c3.358,0,6.513,1.307,8.888,3.682
				c2.374,2.374,3.681,5.53,3.681,8.887S254.807,344.654,252.433,347.028z"/>
			<path d="M243.545,214.252c8.7,0,16.878-3.388,23.029-9.539c6.152-6.151,9.54-14.33,9.54-23.03s-3.388-16.878-9.539-23.03
				c-12.699-12.698-33.361-12.699-46.06,0c-12.698,12.699-12.698,33.361,0,46.06C226.667,210.864,234.845,214.252,243.545,214.252z
				 M234.657,172.795c2.451-2.451,5.669-3.676,8.888-3.676c3.218,0,6.438,1.226,8.887,3.676c2.375,2.374,3.682,5.53,3.682,8.888
				c0,3.358-1.307,6.513-3.681,8.887c-2.374,2.374-5.53,3.681-8.887,3.681s-6.514-1.307-8.888-3.682
				C229.756,185.67,229.756,177.696,234.657,172.795z"/>
			<path d="M329.443,267.848c0.088,0,0.178-0.001,0.267-0.003l22.601-0.592c5.521-0.145,9.879-4.737,9.735-10.258
				c-0.144-5.521-4.747-9.883-10.258-9.735l-22.601,0.592c-5.521,0.145-9.879,4.737-9.735,10.258
				C319.594,263.542,324.042,267.848,329.443,267.848z"/>
		</g>
	</g>
</g>
<g>
</g>
<g>
</g>
<g>
</g>
<g>
</g>
<g>
</g>
<g>
</g>
<g>
</g>
<g>
</g>
<g>
</g>
<g>
</g>
<g>
</g>
<g>
</g>
<g>
</g>
<g>
</g>
<g>
</g>
</svg>
