<?xml version="1.0" encoding="iso-8859-1"?>
<!-- Generator: Adobe Illustrator 19.0.0, SVG Export Plug-In . SVG Version: 6.00 Build 0)  -->
<svg version="1.1" id="Layer_1" xmlns="http://www.w3.org/2000/svg" xmlns:xlink="http://www.w3.org/1999/xlink" x="0px" y="0px"
	 viewBox="0 0 502 502" style="enable-background:new 0 0 502 502;" xml:space="preserve">
<g>
	<g>
		<g>
			<path d="M251,111c-84.364,0-153,68.636-153,153s68.636,153,153,153s153-68.636,153-153S335.364,111,251,111z M251,397
				c-73.336,0-133-59.664-133-133s59.664-133,133-133s133,59.664,133,133S324.336,397,251,397z"/>
			<path d="M214,100h74c5.523,0,10-4.477,10-10s-4.477-10-10-10h-74c-5.523,0-10,4.477-10,10S208.477,100,214,100z"/>
			<path d="M492,87h-94c-5.523,0-10,4.477-10,10v23h-2.284l-69.071-69.071C314.77,49.054,312.226,48,309.574,48H192.426
				c-2.652,0-5.196,1.054-7.071,2.929L116.284,120H10c-5.523,0-10,4.477-10,10v314c0,5.523,4.477,10,10,10h482
				c5.523,0,10-4.477,10-10V130V97C502,91.477,497.523,87,492,87z M482,434H20V140h100.426c2.652,0,5.196-1.054,7.071-2.929
				L196.568,68h108.863l69.071,69.071c1.875,1.875,4.419,2.929,7.071,2.929H482V434z M482,120h-74v-13h74V120z"/>
			<path d="M66,158c-15.439,0-28,12.561-28,28c0,15.439,12.561,28,28,28s28-12.561,28-28C94,170.561,81.439,158,66,158z M66,194
				c-4.411,0-8-3.589-8-8s3.589-8,8-8s8,3.589,8,8S70.411,194,66,194z"/>
			<path d="M251,151c-62.309,0-113,50.691-113,113s50.691,113,113,113s113-50.691,113-113S313.309,151,251,151z M251,357
				c-51.28,0-93-41.72-93-93c0-51.28,41.72-93,93-93c51.28,0,93,41.72,93,93C344,315.28,302.28,357,251,357z"/>
			<path d="M194.631,210.088C180.682,224.669,173,243.815,173,264c0,5.523,4.477,10,10,10s10-4.477,10-10
				c0-15.009,5.712-29.246,16.083-40.086c3.818-3.991,3.678-10.321-0.313-14.139C204.779,205.957,198.449,206.097,194.631,210.088z"
				/>
			<path d="M251,186c-7,0-13.944,0.93-20.64,2.763c-5.327,1.458-8.463,6.958-7.005,12.285c1.216,4.444,5.244,7.362,9.639,7.362
				c0.874,0,1.763-0.115,2.646-0.357C240.616,206.691,245.784,206,251,206c5.523,0,10-4.477,10-10S256.523,186,251,186z"/>
			<path d="M456,414c5.523,0,10-4.477,10-10V239c0-5.523-4.477-10-10-10s-10,4.477-10,10v165C446,409.523,450.477,414,456,414z"/>
			<path d="M456,201c5.523,0,10-4.477,10-10v-20c0-5.523-4.477-10-10-10s-10,4.477-10,10v20C446,196.523,450.477,201,456,201z"/>
		</g>
	</g>
</g>
<g>
</g>
<g>
</g>
<g>
</g>
<g>
</g>
<g>
</g>
<g>
</g>
<g>
</g>
<g>
</g>
<g>
</g>
<g>
</g>
<g>
</g>
<g>
</g>
<g>
</g>
<g>
</g>
<g>
</g>
</svg>
