<?xml version="1.0" encoding="iso-8859-1"?>
<!-- Generator: Adobe Illustrator 19.0.0, SVG Export Plug-In . SVG Version: 6.00 Build 0)  -->
<svg version="1.1" id="Capa_1" xmlns="http://www.w3.org/2000/svg" xmlns:xlink="http://www.w3.org/1999/xlink" x="0px" y="0px"
	 viewBox="0 0 480 480" style="enable-background:new 0 0 480 480;" xml:space="preserve">
<g>
	<g>
		<path d="M479.334,468.808L434.166,365.24c-2.432-7.288-8.256-13.016-15.608-15.312l-17.872-5.584l-64.688-209.536V64
			c0-35.288-28.712-64-64-64h-64c-35.288,0-64,28.712-64,64v70.792L79.31,344.336l-17.888,5.584
			c-7.336,2.304-13.168,8.024-15.344,14.648L0.662,468.808c-1.072,2.48-0.832,5.32,0.648,7.576C2.782,478.64,5.302,480,7.998,480
			h464c2.696,0,5.208-1.36,6.696-3.616C480.166,474.128,480.414,471.28,479.334,468.808z M326.15,237.128l0.136-0.176
			c0.328-0.416,0.512-0.904,0.744-1.36c0.16-0.312,0.384-0.592,0.504-0.92c0.296-0.864,0.464-1.76,0.464-2.672v-68.88
			l54.128,175.304l-77.808-24.896l-12.888-32.216l34.712-44.176L326.15,237.128z M254.99,249.752
			c-8.832-7.08-21.168-7.072-29.984-0.008l-23.88,19.104l-33.128-39.744v-81.936V144h144v3.168v81.928l-33.128,39.752
			L254.99,249.752z M264.27,277.672l-24.272,9.712l-24.28-9.712l19.28-15.424c2.944-2.352,7.048-2.344,9.992,0.008L264.27,277.672z
			 M207.998,16h64c26.472,0,48,21.528,48,48h-160C159.998,37.528,181.526,16,207.998,16z M159.998,80h160v16h-160V80z M159.998,112
			h160v16h-8h-144h-8V112z M151.998,163.12V232c0,1.872,0.656,3.688,1.856,5.128l36.808,44.176l-14.592,32.8l-78.224,24.44
			L151.998,163.12z M231.998,379.384v21.248l-61.304-42.912l14.32-23.856L231.998,379.384z M20.206,464l40.792-93.704
			c0.808-2.432,2.76-4.336,5.2-5.112l100.128-31.288l-13.192,21.984c-2.16,3.6-1.168,8.264,2.272,10.672l76.76,53.728L232.79,464
			H20.206z M193.382,318.072l11.072-27.672l32.568,13.032c1.912,0.768,4.032,0.768,5.944,0l32.576-13.032l11.064,27.672
			l-46.608,46.616L193.382,318.072z M247.998,379.312l46.416-46.416l14.888,24.824l-61.304,42.912V379.312z M248.782,464
			l-0.616-43.952l76.416-53.488c3.448-2.408,4.44-7.072,2.272-10.672l-13.192-21.984l100.12,31.288
			c2.456,0.768,4.4,2.68,5.464,5.776L459.79,464H248.782z"/>
	</g>
</g>
<g>
	<g>
		<path d="M274.334,226.352l-3.328,3.328l-26.208-17.784c-2.688-1.824-6.208-1.832-8.92-0.04l-26.856,17.856l-3.368-3.368
			l-11.312,11.312l8,8c1.544,1.544,3.592,2.344,5.656,2.344c1.528,0,3.072-0.44,4.424-1.336l27.84-18.512l27.232,18.48
			c3.176,2.144,7.432,1.752,10.152-0.968l8-8L274.334,226.352z"/>
	</g>
</g>
<g>
</g>
<g>
</g>
<g>
</g>
<g>
</g>
<g>
</g>
<g>
</g>
<g>
</g>
<g>
</g>
<g>
</g>
<g>
</g>
<g>
</g>
<g>
</g>
<g>
</g>
<g>
</g>
<g>
</g>
</svg>
