<?xml version="1.0" encoding="iso-8859-1"?>
<!-- Generator: Adobe Illustrator 19.0.0, SVG Export Plug-In . SVG Version: 6.00 Build 0)  -->
<svg version="1.1" id="Capa_1" xmlns="http://www.w3.org/2000/svg" xmlns:xlink="http://www.w3.org/1999/xlink" x="0px" y="0px"
	 viewBox="0 0 496 496" style="enable-background:new 0 0 496 496;" xml:space="preserve">
<g>
	<g>
		<path d="M488,267.994H256v-248c0-4.418-3.582-8-8-8s-8,3.582-8,8v248H8c-4.418,0-8,3.582-8,8c0,0,0.232,33.936,0.568,34.816
			C6.166,363.74,50.775,403.93,104,403.994h288c53.225-0.065,97.834-40.254,103.432-93.184c0.336-0.88,0.568-34.816,0.568-34.816
			C496,271.576,492.418,267.994,488,267.994z M392,387.994H104c-42.393-0.068-78.726-30.32-86.472-72h460.944
			C470.726,357.674,434.393,387.926,392,387.994z M480,299.994H16v-16h464V299.994z"/>
	</g>
</g>
<g>
	<g>
		<path d="M216.007,19.988c-2.232-0.002-4.363,0.929-5.879,2.567l-200,216c-3.004,3.24-2.814,8.301,0.426,11.306
			c1.481,1.373,3.427,2.136,5.446,2.134h200c4.418,0,8-3.582,8-8v-216C224.004,23.576,220.425,19.991,216.007,19.988z M208,235.994
			H34.312L208,48.41V235.994z"/>
	</g>
</g>
<g>
	<g>
		<path d="M430.656,239.554l-144-216c-2.451-3.676-7.418-4.669-11.094-2.218c-2.226,1.484-3.562,3.983-3.562,6.658v216
			c0,4.418,3.582,8,8,8h144c4.418,0.001,8.001-3.581,8.001-7.999C432.001,242.415,431.533,240.869,430.656,239.554z M288,235.994
			v-181.6l121.048,181.6H288z"/>
	</g>
</g>
<g>
	<g>
		<path d="M488,427.994c-8.068,0.213-15.989-2.193-22.576-6.856c-18.726-12.185-42.874-12.185-61.6,0
			c-13.66,9.142-31.484,9.142-45.144,0c-18.706-12.193-42.846-12.193-61.552,0c-13.64,9.141-31.448,9.141-45.088,0
			c-18.706-12.193-42.846-12.193-61.552,0c-6.58,4.667-14.496,7.073-22.56,6.856c-8.058,0.213-15.969-2.192-22.544-6.856
			c-9.059-6.173-19.816-9.369-30.776-9.144c-10.959-0.22-21.715,2.975-30.776,9.144c-6.572,4.665-14.48,7.071-22.536,6.856
			c-8.054,0.215-15.959-2.191-22.528-6.856c-9.057-6.171-19.811-9.368-30.768-9.144c-4.418,0-8,3.582-8,8s3.582,8,8,8
			c8.054-0.215,15.959,2.191,22.528,6.856c9.057,6.171,19.811,9.368,30.768,9.144c10.959,0.22,21.715-2.975,30.776-9.144
			c6.572-4.664,14.48-7.07,22.536-6.856c8.059-0.215,15.969,2.191,22.544,6.856c9.061,6.169,19.817,9.365,30.776,9.144
			c10.959,0.22,21.715-2.975,30.776-9.144c13.64-9.14,31.448-9.14,45.088,0c18.706,12.193,42.846,12.193,61.552,0
			c13.642-9.142,31.454-9.142,45.096,0c18.723,12.195,42.877,12.195,61.6,0c13.665-9.142,31.495-9.142,45.16,0
			c9.068,6.173,19.833,9.37,30.8,9.144c4.418,0,8-3.582,8-8S492.418,427.994,488,427.994z"/>
	</g>
</g>
<g>
	<g>
		<path d="M488,467.994c-8.068,0.213-15.989-2.193-22.576-6.856c-18.726-12.185-42.874-12.185-61.6,0
			c-13.66,9.142-31.484,9.142-45.144,0c-18.706-12.193-42.846-12.193-61.552,0c-13.64,9.141-31.448,9.141-45.088,0
			c-18.706-12.193-42.846-12.193-61.552,0c-6.58,4.667-14.496,7.073-22.56,6.856c-8.058,0.213-15.969-2.192-22.544-6.856
			c-9.059-6.173-19.816-9.369-30.776-9.144c-10.959-0.22-21.715,2.975-30.776,9.144c-6.572,4.665-14.48,7.071-22.536,6.856
			c-8.054,0.215-15.959-2.191-22.528-6.856c-9.057-6.171-19.811-9.368-30.768-9.144c-4.418,0-8,3.582-8,8s3.582,8,8,8
			c8.054-0.215,15.959,2.191,22.528,6.856c9.057,6.171,19.811,9.368,30.768,9.144c10.959,0.22,21.715-2.975,30.776-9.144
			c6.572-4.664,14.48-7.07,22.536-6.856c8.059-0.215,15.969,2.191,22.544,6.856c9.061,6.169,19.817,9.365,30.776,9.144
			c10.959,0.22,21.715-2.975,30.776-9.144c13.64-9.14,31.448-9.14,45.088,0c18.706,12.193,42.846,12.193,61.552,0
			c13.642-9.142,31.454-9.142,45.096,0c18.723,12.195,42.877,12.195,61.6,0c13.665-9.142,31.495-9.142,45.16,0
			c9.068,6.173,19.833,9.37,30.8,9.144c4.418,0,8-3.582,8-8S492.418,467.994,488,467.994z"/>
	</g>
</g>
<g>
</g>
<g>
</g>
<g>
</g>
<g>
</g>
<g>
</g>
<g>
</g>
<g>
</g>
<g>
</g>
<g>
</g>
<g>
</g>
<g>
</g>
<g>
</g>
<g>
</g>
<g>
</g>
<g>
</g>
</svg>
