<svg height="512pt" viewBox="0 0 512 512" width="512pt" xmlns="http://www.w3.org/2000/svg"><path d="m312 110c0-5.519531-4.480469-10-10-10s-10 4.480469-10 10 4.480469 10 10 10 10-4.480469 10-10zm0 0"/><path d="m190 452c-5.519531 0-10 4.480469-10 10s4.480469 10 10 10 10-4.480469 10-10-4.480469-10-10-10zm0 0"/><path d="m110 160c-5.519531 0-10 4.480469-10 10s4.480469 10 10 10 10-4.480469 10-10-4.480469-10-10-10zm0 0"/><path d="m472 181.007812v-91.007812c0-49.625-40.375-90-90-90-38.558594 0-72.476562 24.421875-84.972656 60.257812-19.488282 1.957032-36.15625 15.269532-42.40625 33.753907l-116.015625 35.003906c-8.347657-5.839844-18.308594-9.015625-28.605469-9.015625-27.570312 0-50 22.429688-50 50 0 15.777344 7.539062 30.597656 20 39.980469v202.019531h-30c-27.570312 0-50 22.429688-50 50v40c0 5.523438 4.476562 10 10 10h260c5.523438 0 10-4.476562 10-10v-40c0-27.570312-22.429688-50-50-50h-10v-10c0-16.574219-13.425781-30-30-30-16.542969 0-30 13.457031-30 30v10h-20v-202.011719c8.078125-6.070312 14.132812-14.4375 17.363281-23.996093l116.03125-35.007813c5.605469 3.921875 11.933594 6.632813 18.605469 7.996094v22.027343c-22.796875 4.644532-40 24.84375-40 48.992188v20c0 5.523438 4.476562 10 10 10h240c5.523438 0 10-4.476562 10-10v-20c0-24.144531-17.203125-44.347656-40-48.992188zm-90-161.007812c38.597656 0 70 31.402344 70 70v90h-140v-21.007812c22.796875-4.644532 40-24.84375 40-48.992188 0-22.003906-14.355469-40.90625-34.390625-47.496094 10.839844-25.46875 35.988281-42.503906 64.390625-42.503906zm-123.511719 114.59375-98.808593 29.808594c-.757813-6.714844-2.875-13.167969-6.167969-18.992188l98.808593-29.8125c.757813 6.714844 2.875 13.171875 6.167969 18.996094zm1.511719 327.40625v30h-240v-30c0-16.542969 13.457031-30 30-30h180c16.542969 0 30 13.457031 30 30zm-80-60c0-5.515625 4.484375-10 10-10 5.519531 0 10 4.480469 10 10v10h-20zm-80 10v-193.015625c3.28125.667969 6.628906 1.015625 10 1.015625s6.71875-.347656 10-1.015625v193.015625zm10-212c-16.859375 0-30-13.757812-30-30 0-16.542969 13.457031-30 30-30 16.507812 0 30 13.417969 30 30 0 16.679688-13.53125 30-30 30zm162.601562-96.019531c2.890626-14.226563 15.953126-24.84375 31.300782-23.917969 15.753906.980469 28.097656 14.125 28.097656 29.9375 0 16.542969-13.457031 30-30 30-18.71875 0-33.191406-17.140625-29.398438-36.019531zm219.398438 136.019531h-220v-10c0-16.542969 13.457031-30 30-30h160c16.542969 0 30 13.457031 30 30zm0 0"/><path d="m150 452h-60c-5.523438 0-10 4.476562-10 10s4.476562 10 10 10h60c5.523438 0 10-4.476562 10-10s-4.476562-10-10-10zm0 0"/><path d="m392 350v-40c0-5.523438-4.476562-10-10-10s-10 4.476562-10 10v40c0 5.523438 4.476562 10 10 10s10-4.476562 10-10zm0 0"/><path d="m467 346.511719c4.78125-2.765625 6.421875-8.878907 3.660156-13.660157l-20-34.640624c-2.761718-4.78125-8.875-6.421876-13.660156-3.660157-4.78125 2.761719-6.421875 8.875-3.660156 13.660157l20 34.640624c2.769531 4.796876 8.890625 6.414063 13.660156 3.660157zm0 0"/><path d="m297 346.511719c4.773438 2.753906 10.890625 1.132812 13.660156-3.660157l20-34.640624c2.761719-4.785157 1.121094-10.898438-3.660156-13.660157-4.785156-2.761719-10.898438-1.121093-13.660156 3.660157l-20 34.640624c-2.761719 4.78125-1.121094 10.894532 3.660156 13.660157zm0 0"/></svg>