<svg height="512pt" viewBox="0 -114 512 512" width="512pt" xmlns="http://www.w3.org/2000/svg"><path d="m511.960938 244.753906c0-.007812 0-.015625 0-.023437-.015626-.148438-.042969-.296875-.066407-.445313-.019531-.105468-.03125-.210937-.050781-.316406-.011719-.046875-.027344-.09375-.035156-.140625-.046875-.203125-.097656-.402344-.160156-.601563 0-.003906-.003907-.003906-.003907-.007812l-41.585937-130.128906c7.90625-3.492188 13.441406-11.40625 13.441406-20.589844 0-12.40625-10.09375-22.5-22.5-22.5h-14.519531c-5.308594-14.269531-19.039063-24.089844-34.71875-24.089844-3.699219 0-7.367188.554688-10.875 1.628906-6.734375-10.402343-18.257813-16.808593-31.066407-16.808593-.179687 0-.359374 0-.539062.003906-3.011719-17.433594-18.246094-30.734375-36.53125-30.734375-16.570312 0-30.816406 10.917969-35.457031 26.273438-2.421875.269531-4.808594.773437-7.121094 1.503906-.527344-.632813-1.078125-1.25-1.644531-1.847656-2.855469-3.003907-7.601563-3.121094-10.605469-.269532-3 2.855469-3.121094 7.601563-.269531 10.605469 1.269531 1.332031 2.367187 2.820313 3.265625 4.421875 1.996093 3.5625 6.476562 4.871094 10.078125 2.945312 3.667968-1.960937 7.742187-2.777343 11.964844-2.527343 3.972656.234375 7.433593-2.671875 7.890624-6.625 1.285157-11.105469 10.699219-19.480469 21.898438-19.480469 12.171875 0 22.070312 9.894531 22.070312 22.058594 0 .53125-.035156 1.101562-.074218 1.644531-.164063 2.417969.847656 4.769531 2.71875 6.308594 1.871094 1.539062 4.375 2.082031 6.710937 1.453125 1.8125-.488282 3.710938-.734375 5.644531-.734375 9.1875 0 17.269532 5.539062 20.585938 14.109375.785156 2.023437 2.40625 3.609375 4.449219 4.347656 2.039062.734375 4.300781.550781 6.199219-.503906 3.296874-1.839844 6.894531-2.773438 10.707031-2.773438 7.253906 0 13.808593 3.535156 17.851562 9.09375h-341.578125c3.527344-2.339844 7.738282-3.660156 12.203125-3.660156 1.777344 0 3.582031.21875 5.359375.652344 3.28125.804687 6.691406-.6875 8.335938-3.636719 3.902344-7.011719 11.296875-11.367187 19.296875-11.367187 2.433593 0 4.84375.402343 7.164062 1.195312 2.0625.707031 4.328125.480469 6.214844-.625 1.882813-1.101562 3.191406-2.96875 3.585937-5.113281 1.921876-10.457031 11.046876-18.046875 21.695313-18.046875 5.699219 0 11.109375 2.171875 15.234375 6.117187 1.9375 1.855469 4.714844 2.535157 7.292969 1.78125 2.574219-.753906 4.550781-2.828125 5.179687-5.433593 2.40625-9.929688 11.222656-16.863282 21.441406-16.863282 8.75 0 16.683594 5.183594 20.214844 13.207032.835938 1.898437 2.414063 3.363281 4.367188 4.050781s4.101562.542969 5.941406-.410157c1.242188-.640624 2.546875-1.164062 3.878906-1.558593 3.972656-1.171875 6.242188-5.339844 5.070313-9.3125-1.148438-3.898438-5.183594-6.160157-9.085938-5.136719-6.855469-9.804688-18.144531-15.84375-30.386719-15.84375-13.558593 0-25.648437 7.269531-32.121093 18.539062-5.207031-2.703124-11.023438-4.136718-17.03125-4.136718-15.230469 0-28.609375 9.25-34.238281 22.855468-1.464844-.179687-2.9375-.265624-4.417969-.265624-11.609375 0-22.457031 5.453124-29.417969 14.523437-1.191406-.117187-2.382812-.175781-3.574219-.175781-13.519531 0-25.644531 7.183594-32.167969 18.660156h-17.070312c-12.40625 0-22.5 10.09375-22.5 22.5 0 9.1875 5.535156 17.097656 13.441406 20.589844l-5.390625 16.867187c-1.261719 3.945313.917969 8.164063 4.859375 9.425781.761719.246094 1.53125.359376 2.285156.359376 3.175782 0 6.125-2.03125 7.144532-5.21875l6.238281-19.519532h397.84375l39.308594 123h-46.398438c-4.140625 0-7.5 3.355469-7.5 7.5 0 4.140625 3.359375 7.5 7.5 7.5h49.167969v15h-482v-15h401.167969c4.140625 0 7.5-3.359375 7.5-7.5 0-4.144531-3.359375-7.5-7.5-7.5h-398.398438l23.328125-72.996094c1.261719-3.945312-.914062-8.164062-4.859375-9.425781-3.949219-1.261719-8.167969.914063-9.429687 4.859375l-26.453125 82.777344c0 .003906-.003907.003906-.003907.007812-.0625.199219-.113281.402344-.160156.601563-.011718.050781-.027344.09375-.035156.140625-.019531.101562-.035156.210938-.050781.316406-.0234378.148438-.0507815.296875-.0664065.445313-.0039063.007812-.0039063.015625-.0039063.023437-.0234374.25-.0351562.496094-.0351562.742188v.003906 30c0 4.140625 3.355469 7.5 7.5 7.5h497c4.144531 0 7.5-3.359375 7.5-7.5v-30s0 0 0-.003906c0-.246094-.011719-.492188-.039062-.742188zm-460.960938-159.753906h410c4.136719 0 7.5 3.363281 7.5 7.5s-3.363281 7.5-7.5 7.5h-.609375c-.027344 0-.054687 0-.082031 0h-408.621094c-.027344 0-.050781 0-.078125 0h-.609375c-4.136719 0-7.5-3.363281-7.5-7.5s3.363281-7.5 7.5-7.5zm0 0"/><path d="m320.5 150.5c0-15.164062-12.335938-27.5-27.5-27.5-12.171875 0-22.511719 7.949219-26.125 18.925781-3.511719-.605469-7.148438-.925781-10.875-.925781s-7.363281.320312-10.875.925781c-3.613281-10.976562-13.953125-18.925781-26.125-18.925781-15.164062 0-27.5 12.335938-27.5 27.5 0 9.714844 5.027344 18.394531 12.890625 23.304688-1.226563 3.730468-1.890625 7.648437-1.890625 11.695312 0 24.539062 24 44.5 53.5 44.5s53.5-19.960938 53.5-44.5c0-4.046875-.664062-7.96875-1.890625-11.695312 7.863281-4.910157 12.890625-13.589844 12.890625-23.304688zm-114 0c0-6.894531 5.605469-12.5 12.5-12.5 5.410156 0 10.015625 3.460938 11.75 8.28125-7.671875 3.429688-14.230469 8.371094-19.089844 14.34375-3.167968-2.289062-5.160156-6-5.160156-10.125zm49.5 64.5c-21.230469 0-38.5-13.234375-38.5-29.5 0-4.046875 1.070312-7.902344 3.003906-11.417969.058594-.089843.105469-.1875.160156-.28125 3.921876-6.925781 11.207032-12.484375 20.277344-15.449219.175782-.046874.355469-.101562.527344-.164062 4.488281-1.40625 9.390625-2.1875 14.53125-2.1875 5.160156 0 10.082031.789062 14.582031 2.203125.144531.050781.292969.097656.441407.136719 9.082031 2.960937 16.382812 8.527344 20.3125 15.460937.054687.09375.101562.191407.160156.285157 1.933594 3.511718 3.003906 7.367187 3.003906 11.414062 0 16.265625-17.269531 29.5-38.5 29.5zm25.25-68.71875c1.734375-4.820312 6.339844-8.28125 11.75-8.28125 6.894531 0 12.5 5.605469 12.5 12.5 0 4.125-1.992188 7.835938-5.160156 10.125-4.859375-5.972656-11.417969-10.914062-19.089844-14.34375zm0 0"/><path d="m250.5 171.75c0 4.140625-3.359375 7.5-7.5 7.5s-7.5-3.359375-7.5-7.5c0-4.144531 3.359375-7.5 7.5-7.5s7.5 3.355469 7.5 7.5zm0 0"/><path d="m276.5 171.75c0 4.140625-3.359375 7.5-7.5 7.5s-7.5-3.359375-7.5-7.5c0-4.144531 3.359375-7.5 7.5-7.5s7.5 3.355469 7.5 7.5zm0 0"/></svg>