<?xml version="1.0" encoding="iso-8859-1"?>
<!-- Generator: Adobe Illustrator 19.0.0, SVG Export Plug-In . SVG Version: 6.00 Build 0)  -->
<svg version="1.1" id="Capa_1" xmlns="http://www.w3.org/2000/svg" xmlns:xlink="http://www.w3.org/1999/xlink" x="0px" y="0px"
	 viewBox="0 0 512 512" style="enable-background:new 0 0 512 512;" xml:space="preserve">
<g>
	<g>
		<path d="M358.4,85.333V68.267H384c4.719,0,8.533-3.814,8.533-8.533v-51.2C392.533,3.814,388.719,0,384,0H128
			c-4.719,0-8.533,3.814-8.533,8.533v51.2c0,4.719,3.814,8.533,8.533,8.533h25.6v17.067c-51.755,0-93.867,42.112-93.867,93.867
			v264.533v8.533c0,32.93,26.803,59.733,59.733,59.733h273.067c32.93,0,59.733-26.803,59.733-59.733V179.2
			C452.267,127.445,410.155,85.333,358.4,85.333z M136.533,51.2V17.067h238.933V51.2h-25.6H162.133H136.533z M341.333,68.267v17.067
			H170.667V68.267H341.333z M76.8,443.733v-256H384v256H76.8z M435.2,452.267c0,23.526-19.14,42.667-42.667,42.667H119.467
			c-20.599,0-37.837-14.686-41.805-34.133h314.871c4.719,0,8.533-3.814,8.533-8.533V179.2c0-4.719-3.814-8.533-8.533-8.533H77.303
			c4.258-38.34,36.83-68.267,76.297-68.267h8.533h187.733h8.533c42.351,0,76.8,34.449,76.8,76.8V452.267z"/>
	</g>
</g>
<g>
	<g>
		<path d="M301.414,312.491c-4.361-1.476-8.892-2.227-13.483-2.227c-13.372,0-25.83,6.332-34.773,17.34
			c-10.044-7.39-20.446-10.769-30.976-9.847c-3.558,0.282-6.869,1.033-9.907,2.074c1.749-5.478,3.473-10.94,4.762-15.266
			c1.246-4.139,4.599-5.53,5.803-5.896h20.343c10.88,0,20.992-5.41,27.042-14.464l9.95-14.933c0.922-1.399,1.425-3.055,1.425-4.736
			v-42.667c0-4.173-3.021-7.731-7.134-8.414l-51.2-8.533c-3.123-0.486-6.315,0.742-8.226,3.302l-24.789,33.05
			c-88.73,62.763-62.677,124.467-61.517,127.07c0.469,1.058,1.143,1.997,1.98,2.79c44.8,41.702,84.668,53.069,114.807,53.069
			c35.772,0,57.856-16.009,58.257-16.307c2.15-1.604,3.413-4.139,3.413-6.827v-80.495
			C307.2,316.919,304.879,313.677,301.414,312.491z M290.133,396.425c-14.251,8.337-70.46,33.212-146.33-36.446
			c-3.021-9.011-14.106-55.501,57.361-105.523c0.742-0.521,1.391-1.152,1.937-1.877l22.494-29.986l38.938,6.502v8.832l-3.277,1.638
			l-25.028,8.346c-4.463,1.485-6.886,6.315-5.393,10.795c1.195,3.567,4.523,5.828,8.098,5.828c0.887,0,1.801-0.145,2.697-0.444
			l22.903-7.629v5.495l-8.516,12.774c-2.867,4.301-7.663,6.869-12.843,6.869h-21.308c-0.461,0-0.913,0.034-1.374,0.111
			c-5.641,0.922-16.171,5.751-19.806,17.98c-3.977,13.321-12.425,38.69-12.51,38.938c-1.323,3.977,0.427,8.32,4.13,10.257
			c3.703,1.937,8.277,0.913,10.786-2.44c0.085-0.102,8.354-10.709,20.454-11.682c8.158-0.555,16.751,3.268,25.455,11.648
			c1.92,1.86,4.591,2.688,7.219,2.295c2.637-0.41,4.924-2.014,6.204-4.361c6.204-11.426,16.742-17.954,27.708-16.913V396.425z"/>
	</g>
</g>
<g>
</g>
<g>
</g>
<g>
</g>
<g>
</g>
<g>
</g>
<g>
</g>
<g>
</g>
<g>
</g>
<g>
</g>
<g>
</g>
<g>
</g>
<g>
</g>
<g>
</g>
<g>
</g>
<g>
</g>
</svg>
