<svg height="512pt" viewBox="0 -102 512 512" width="512pt" xmlns="http://www.w3.org/2000/svg"><path d="m358.074219 124.5625h91.425781c12.40625 0 22.5-10.09375 22.5-22.5v-30c0-12.40625-10.09375-22.5-22.5-22.5h-91.425781c-12.402344 0-22.5 10.09375-22.5 22.5v30c0 12.40625 10.097656 22.5 22.5 22.5zm-7.5-52.5c0-4.136719 3.367187-7.5 7.5-7.5h91.425781c4.136719 0 7.5 3.363281 7.5 7.5v30c0 4.132812-3.363281 7.5-7.5 7.5h-91.425781c-4.132813 0-7.5-3.367188-7.5-7.5zm0 0"/><path d="m206.652344 124.5625h91.421875c12.40625 0 22.5-10.09375 22.5-22.5v-30c0-12.40625-10.09375-22.5-22.5-22.5h-91.421875c-12.40625 0-22.5 10.09375-22.5 22.5v30c0 12.40625 10.09375 22.5 22.5 22.5zm-7.5-52.5c0-4.136719 3.363281-7.5 7.5-7.5h91.421875c4.136719 0 7.5 3.363281 7.5 7.5v30c0 4.132812-3.363281 7.5-7.5 7.5h-91.421875c-4.136719 0-7.5-3.367188-7.5-7.5zm0 0"/><path d="m161.878906 260.308594c4.695313 0 7.28125-4.226563 7.28125-5.738282.558594-2.308593.839844-4.679687.839844-7.070312 0-8.007812-3.121094-15.550781-8.789062-21.210938-5.660157-5.667968-13.191407-8.789062-21.210938-8.789062-8.011719 0-15.550781 3.121094-21.210938 8.789062-5.667968 5.660157-8.789062 13.203126-8.789062 21.210938 0 16.597656 13.4375 30 30 30 4.140625 0 7.5-3.359375 7.5-7.5s-3.359375-7.5-7.5-7.5c-8.25-.019531-14.980469-6.738281-15-15 .019531-8.257812 6.75-14.988281 15-15 8.261719.011719 14.988281 6.742188 15 15 0 1.199219-.140625 2.390625-.421875 3.539062-1.136719 4.714844 2.457031 9.269532 7.300781 9.269532zm0 0"/><path d="m502 210.875c0-8.253906 0-156.992188 0-163.375 0-26.191406-21.308594-47.5-47.5-47.5h-318.5c-25.804688 0-53.3125 12.378906-77.460938 34.855469-3.851562 3.585937-6.011718 8.671875-5.925781 13.953125.050781 3.03125.832031 5.976562 2.234375 8.597656-6.046875 9.355469-30.90625 47.820312-34.101562 52.761719-7.054688 1.964843-12.246094 8.445312-12.246094 16.113281v85.703125c-5.023438 2.425781-8.5 7.574219-8.5 13.515625v14.5c0 8.269531 6.730469 15 15 15h65.492188c3.742187 29.84375 29.1875 52.5 59.507812 52.5 20.648438 0 39.554688-10.609375 50.449219-27.550781 2.25-3.480469 1.242187-8.128907-2.230469-10.378907-3.46875-2.21875-8.105469-1.261718-10.367188 2.238282v.011718c-8.371093 12.949219-22.523437 20.679688-37.851562 20.679688-24.738281 0-44.980469-20.085938-45-45 0-2.601562-1.335938-4.898438-3.355469-6.242188l20.210938-35.007812c1.335937-2.3125 3.824219-3.75 6.496093-3.75h43.300782c2.671875 0 5.160156 1.4375 6.496094 3.75l20.210937 35.007812c-6.175781 4.109376-3.25 13.742188 4.140625 13.742188h127.699219c2.679687 0 5.152343-1.429688 6.492187-3.75l7.539063-13.054688c-.476563 3.054688-.730469 6.160157-.730469 9.304688 0 33.085938 26.914062 60 60 60 33.082031 0 60-26.914062 60-60 0-3.148438-.253906-6.25-.730469-9.308594l7.535157 13.058594c1.339843 2.320312 3.816406 3.75 6.496093 3.75h30.199219c8.269531 0 15-6.730469 15-15v-15c0-6.515625-4.183594-12.058594-10-14.125zm-433.917969-146.3125h17.890625l-29.082031 45h-17.890625zm86.070313 122.9375h-35.800782c-8.011718 0-15.480468 4.3125-19.488281 11.25l-23.8125 41.25h-60.050781v-14.5h14c4.140625 0 7.5-3.355469 7.5-7.5 0-4.140625-3.359375-7.5-7.5-7.5h-5.5v-55.941406h108.148438c4.140624 0 7.5-3.359375 7.5-7.5 0-4.136719-3.359376-7.5-7.5-7.5h-108.148438v-14.996094h130.652344zm0-77.9375h-79.402344l29.082031-45h42.820313c4.136718 0 7.5 3.363281 7.5 7.5zm239.347656 182.9375c-24.8125 0-45-20.1875-45-45 0-5.175781.871094-10.199219 2.578125-14.996094h16.433594c-2.613281 4.507813-4.011719 9.644532-4.011719 14.996094 0 8.019531 3.121094 15.550781 8.789062 21.210938 5.660157 5.667968 13.191407 8.789062 21.210938 8.789062 4.128906 0 7.5-3.359375 7.5-7.5s-3.371094-7.5-7.5-7.5c-8.261719-.019531-14.988281-6.738281-15-15 .011719-8.246094 6.71875-14.96875 14.960938-14.996094h.074218c8.234375.027344 14.945313 6.75 14.964844 14.996094 0 1.210938-.140625 2.398438-.421875 3.539062-.976563 4.050782 1.511719 8.082032 5.53125 9.050782 4.128906.996094 8.078125-1.558594 9.039063-5.511719.011718 0 .011718-.007813.011718-.007813.558594-2.3125.839844-4.679687.839844-7.070312 0-5.351562-1.402344-10.488281-4.019531-14.996094h16.4375c1.707031 4.796875 2.578125 9.820313 2.578125 14.996094.003906 24.8125-20.183594 45-44.996094 45zm103.5-52.5c-3.710938 0-3.359375 0-23.5 0h-2.367188l-6.496093-11.246094c-4.003907-6.941406-11.472657-11.25-19.484375-11.25h-103.304688c-8.011718 0-15.480468 4.308594-19.484375 11.25l-6.496093 11.246094h-110.914063l-23.816406-41.25c-2.710938-4.695312-7.007813-8.183594-11.984375-9.949219v-116.738281c0-12.40625-10.09375-22.5-22.5-22.5h-78.890625c-.375-1.347656-.035157-2.761719 1-3.726562 21.359375-19.886719 45.238281-30.835938 67.238281-30.835938h318.5c17.921875 0 32.5 14.578125 32.5 32.5v92.058594h-295.351562c-4.128907 0-7.5 3.363281-7.5 7.5 0 4.140625 3.371093 7.5 7.5 7.5h295.351562v55.441406h-2.5c-4.144531 0-7.5 3.355469-7.5 7.5s3.355469 7.5 7.5 7.5h12.5zm0 0"/></svg>