<?xml version="1.0" encoding="iso-8859-1"?>
<!-- Generator: Adobe Illustrator 19.0.0, SVG Export Plug-In . SVG Version: 6.00 Build 0)  -->
<svg version="1.1" id="Capa_1" xmlns="http://www.w3.org/2000/svg" xmlns:xlink="http://www.w3.org/1999/xlink" x="0px" y="0px"
	 viewBox="0 0 512 512" style="enable-background:new 0 0 512 512;" xml:space="preserve">
<g>
	<g>
		<path d="M439.498,366.677c-20.937,0-37.97,17.033-37.97,37.97s17.033,37.97,37.97,37.97s37.97-17.033,37.97-37.97
			S460.434,366.677,439.498,366.677z M439.498,427.617c-12.666,0-22.97-10.305-22.97-22.97c0-12.665,10.304-22.97,22.97-22.97
			s22.97,10.305,22.97,22.97C462.468,417.313,452.163,427.617,439.498,427.617z"/>
	</g>
</g>
<g>
	<g>
		<path d="M226.932,349.69c-4.142,0-7.5,3.358-7.5,7.5v10.902c0,4.142,3.358,7.5,7.5,7.5c4.142,0,7.5-3.358,7.5-7.5V357.19
			C234.432,353.048,231.074,349.69,226.932,349.69z"/>
	</g>
</g>
<g>
	<g>
		<path d="M347.41,349.69c-4.142,0-7.5,3.358-7.5,7.5v10.902c0,4.142,3.358,7.5,7.5,7.5c4.142,0,7.5-3.358,7.5-7.5V357.19
			C354.91,353.049,351.552,349.69,347.41,349.69z"/>
	</g>
</g>
<g>
	<g>
		<path d="M306.976,361.687c-3.12-2.726-7.856-2.408-10.583,0.71c-2.23,2.551-5.591,4.014-9.222,4.014s-6.991-1.463-9.221-4.014
			c-2.727-3.119-7.464-3.437-10.583-0.711c-3.119,2.726-3.437,7.464-0.711,10.583c5.079,5.81,12.556,9.142,20.515,9.142
			c7.958,0,15.436-3.332,20.515-9.142C310.412,369.152,310.094,364.414,306.976,361.687z"/>
	</g>
</g>
<g>
	<g>
		<path d="M500.749,365.927c-1.816-28.517-7.529-52.363-17.01-70.875c-3.442-6.721-7.394-12.728-11.81-18.063
			c2.706-11.087,1.323-22.576-4.039-32.778c-2.636-5.015-6.074-9.409-10.155-13.056c12.316-39.768,14.042-77.628,4.947-109.786
			c-10.389-36.749-34.122-64.394-66.83-77.842c-14.015-5.759-29.196-8.68-45.12-8.68c-37.102,0-75.597,15.665-111.322,45.299
			c-40.349,33.471-75.13,82.623-103.379,146.089L74.952,349.661c-1.837,3.712-0.317,8.211,3.396,10.048
			c3.712,1.838,8.211,0.317,10.049-3.396l57.845-116.89l23.091,11.129L86.171,418.609H57.569l17.718-35.804
			c1.837-3.712,0.317-8.211-3.396-10.048c-3.714-1.838-8.212-0.317-10.049,3.396l-21.01,42.457h-6.629
			C15.344,418.609,0,433.953,0,452.813c0,13.42,10.918,24.338,24.338,24.338h55.375c15.322,0,32.459-12.305,32.459-28.772v-8.425
			c0-7.887-4.311-14.771-10.689-18.467c0,0,85.015-171.827,85.165-172.177c36.023-81.144,76.647-119.982,104.385-138.277
			c20.368-13.43,41.064-20.528,59.852-20.528c8.581,0,16.594,1.506,23.819,4.477c16.565,6.802,28.8,21.547,34.45,41.517
			c6.194,21.927,4.576,48.965-4.644,78.494c-1.23-0.099-2.468-0.16-3.695-0.16c-19.676,0-37.175,12.716-43.547,30.924
			c-7.438,0.788-14.956,1.906-22.522,3.392c-4.064,0.798-6.713,4.74-5.915,8.804c0.798,4.065,4.739,6.712,8.804,5.915
			c9.125-1.792,18.165-3.028,27.045-3.742c29.303-2.356,64.635-1.925,88.053,18.547c0.042,0.037,0.084,0.073,0.126,0.11
			c19.422,17.164,27.378,43.617,30.942,68.466c-4.903-3.786-10.27-6.912-15.954-9.327c-8.917-3.788-18.606-5.775-28.295-5.775
			c-0.018,0-0.036-0.001-0.054-0.001c-39.978,0-72.503,32.524-72.503,72.502c0,0.016,0.001,0.032,0.001,0.049
			c0,5.997,0.746,12.03,2.226,17.843h-199.29c1.845-33.343,15.992-64.914,41.193-91.72c24.409-25.963,58.985-47.063,97.362-59.415
			c3.943-1.269,6.11-5.494,4.841-9.437c-1.269-3.943-5.494-6.111-9.437-4.841c-40.751,13.116-77.577,35.639-103.695,63.419
			c-28.033,29.818-43.606,65.161-45.309,102.602c-14.236,2.288-26.633,11.136-33.364,24.262c-3.273,6.383-2.994,13.848,0.746,19.968
			c3.74,6.121,10.254,9.775,17.427,9.775c0,0,299.8,0,299.805,0C479.478,477.148,512,444.624,512,404.648
			C512,390.416,507.862,377.14,500.749,365.927z M97.172,448.378c0,7.288-9.764,13.772-17.459,13.772H24.338
			c-5.149,0-9.338-4.189-9.338-9.338c0-10.59,8.615-19.204,19.204-19.204h56.624c3.498,0,6.344,2.846,6.344,6.345V448.378z
			 M380.404,81.108c-9.041-3.718-18.973-5.603-29.52-5.603c-21.732,0-45.284,7.955-68.11,23.006
			c-28.68,18.916-70.21,58.229-107.025,138.483l-23.089-11.128c26.75-58.207,59.135-103.323,96.326-134.174
			c33-27.375,68.183-41.844,101.745-41.844c13.958,0,27.221,2.542,39.417,7.553c28.356,11.66,48.989,35.827,58.099,68.05
			c8.02,28.355,6.726,61.897-3.692,97.476c-0.044-0.018-0.089-0.032-0.133-0.05c-7.81-3.229-16.355-4.571-24.642-5.946
			c-0.056-0.009-0.111-0.02-0.166-0.029c9.385-31.348,10.775-60.403,3.974-84.483C416.656,107.919,401.319,89.696,380.404,81.108z
			 M428.429,249.755c-12.882-3.179-26.135-4.791-39.385-5.231c-4.885-0.163-9.78-0.149-14.665,0.017
			c5.57-8.901,15.506-14.709,26.436-14.709c9.321,0,18.84,2.073,27.903,4.102c10.886,2.437,20.489,6.97,25.894,17.254
			c2.091,3.979,3.292,8.25,3.587,12.593C449.361,257.098,439.175,252.409,428.429,249.755z M139.697,462.151
			c-2.745,0-4.151-1.815-4.627-2.596c-0.477-0.78-1.451-2.859-0.198-5.302c5.287-10.309,15.768-16.713,27.354-16.713h212.643
			c0.268,0.526,0.564,1.031,0.843,1.548c0.033,0.061,0.066,0.122,0.099,0.183c4.91,9.04,11.568,16.797,19.483,22.88H139.697z
			 M439.497,462.151c-25.9,0-49.437-18.294-55.744-43.446c-8.968-35.765,18.849-71.56,55.744-71.56
			c31.319,0,57.502,26.232,57.502,57.502C497,436.354,471.205,462.151,439.497,462.151z"/>
	</g>
</g>
<g>
</g>
<g>
</g>
<g>
</g>
<g>
</g>
<g>
</g>
<g>
</g>
<g>
</g>
<g>
</g>
<g>
</g>
<g>
</g>
<g>
</g>
<g>
</g>
<g>
</g>
<g>
</g>
<g>
</g>
</svg>
