<?xml version="1.0" encoding="utf-8"?>
<!-- Generator: Adobe Illustrator 16.0.0, SVG Export Plug-In . SVG Version: 6.00 Build 0)  -->
<!DOCTYPE svg PUBLIC "-//W3C//DTD SVG 1.1 Tiny//EN" "http://www.w3.org/Graphics/SVG/1.1/DTD/svg11-tiny.dtd">
<svg version="1.1" baseProfile="tiny" id="Layer_1" xmlns="http://www.w3.org/2000/svg" xmlns:xlink="http://www.w3.org/1999/xlink"
	 x="0px" y="0px" width="24px" height="24px" viewBox="0 0 24 24" xml:space="preserve">
<g>
	<path d="M8.736,5.348C7.761,4.999,6.544,4.925,5.696,4.925c-0.5,0-0.833,0.026-0.833,0.026C4.74,4.961,4.629,5.026,4.561,5.128
		c-0.068,0.103-0.085,0.23-0.047,0.347c0.035,0.107,0.884,2.625,2.563,3.226c0.678,0.244,1.85,0.291,2.706,0.325
		c0.321,0.013,0.57,0.019,0.63,0.027c0.048,0.02,0.108,0.032,0.16,0.032c0.194,0,0.372-0.152,0.405-0.343
		C11.058,8.28,9.513,5.626,8.736,5.348z M9.813,8.227C9.101,8.199,7.909,8.151,7.346,7.949C6.425,7.619,5.779,6.42,5.474,5.728
		c0.758-0.018,2.039,0.032,2.993,0.373c0.32,0.118,1.121,1.375,1.511,2.133C9.927,8.231,9.872,8.229,9.813,8.227z"/>
	<path d="M19.105,5.471c-0.061-0.021-1.511-0.524-3.009-0.524c-0.564,0-1.069,0.073-1.5,0.216c-0.863,0.287-2.622,3.082-2.542,3.572
		c0.031,0.193,0.211,0.349,0.408,0.349c0.049,0,0.077-0.001,0.123-0.019c0.085-0.018,0.458-0.031,0.787-0.043
		c0.918-0.034,2.306-0.084,3.069-0.337c1.874-0.622,2.851-2.576,2.891-2.659c0.051-0.103,0.055-0.222,0.011-0.328
		C19.3,5.591,19.213,5.509,19.105,5.471z M16.189,7.925c-0.655,0.217-1.975,0.265-2.847,0.297c-0.098,0.003-0.186,0.007-0.265,0.01
		c0.444-0.796,1.376-2.179,1.771-2.311c0.35-0.116,0.77-0.175,1.248-0.175c0.875,0,1.754,0.197,2.274,0.338
		C18.013,6.631,17.27,7.566,16.189,7.925z"/>
	<path d="M21.1,19.195c0,0.221,0.179,0.4,0.4,0.4s0.4-0.179,0.4-0.4V3.547c0-0.029,0.002-0.069,0.002-0.081
		c0-0.24,0-0.972-0.697-0.972c-0.144,0-0.297,0.034-0.475,0.073c-0.51,0.112-1.366,0.203-2.282-0.072
		c-0.958-0.287-2.307,0.215-3.699,0.783c-1.117,0.456-2.273,0.926-3.248,0.926c-0.981,0-2.142-0.47-3.264-0.924
		C6.84,2.714,5.489,2.212,4.528,2.503C3.618,2.78,2.769,2.688,2.263,2.573c-0.176-0.04-0.328-0.074-0.471-0.074
		c-0.689,0-0.689,0.728-0.689,0.954c-0.01,0.312-0.2,7.645,4.546,8.723c1.259,0.173,2.363,0.935,3.336,1.606
		c0.919,0.634,1.713,1.182,2.517,1.182c0.79,0,1.468-0.492,2.253-1.061c0.95-0.689,2.027-1.47,3.66-1.739
		c1.965-0.258,3.064-2.005,3.686-3.867V19.195z M17.297,11.374c-1.833,0.302-3.041,1.178-4.012,1.882
		c-0.7,0.508-1.253,0.909-1.784,0.909c-0.554,0-1.253-0.482-2.063-1.041c-1.046-0.722-2.233-1.541-3.646-1.734
		c-4.069-0.925-3.892-7.84-3.89-7.923c0-0.064,0.002-0.113,0.005-0.151c0.054,0.01,0.118,0.024,0.18,0.039
		c0.543,0.123,1.606,0.239,2.672-0.085c0.713-0.212,1.926,0.246,3.178,0.752c1.193,0.483,2.427,0.982,3.564,0.982
		c1.131,0,2.361-0.501,3.55-0.985c1.248-0.509,2.458-0.971,3.167-0.757c1.075,0.322,2.132,0.208,2.684,0.087
		c0.07-0.015,0.138-0.03,0.195-0.041c0.003,0.038,0.005,0.088,0.005,0.153v0.003c0,0.003-0.002,0.006-0.002,0.009v0.059
		C21.079,4.219,20.79,10.915,17.297,11.374z"/>
	<path d="M20.1,20.195c0,0.221,0.179,0.4,0.4,0.4h2c0.221,0,0.4-0.179,0.4-0.4s-0.179-0.4-0.4-0.4h-2
		C20.279,19.795,20.1,19.975,20.1,20.195z"/>
	<path d="M22.5,20.795h-2c-0.221,0-0.4,0.179-0.4,0.4s0.179,0.4,0.4,0.4h2c0.221,0,0.4-0.179,0.4-0.4S22.72,20.795,22.5,20.795z"/>
</g>
</svg>
