<?xml version="1.0" encoding="iso-8859-1"?>
<!-- Generator: Adobe Illustrator 19.0.0, SVG Export Plug-In . SVG Version: 6.00 Build 0)  -->
<svg version="1.1" id="Capa_1" xmlns="http://www.w3.org/2000/svg" xmlns:xlink="http://www.w3.org/1999/xlink" x="0px" y="0px"
	 viewBox="0 0 464 464" style="enable-background:new 0 0 464 464;" xml:space="preserve">
<g>
	<g>
		<path d="M358.176,329.888l-13.312-33.52c4.692-12.943,7.106-26.601,7.136-40.368V120C352,53.726,298.274,0,232,0
			S112,53.726,112,120v136c0.03,13.767,2.444,27.425,7.136,40.368l-13.312,33.52C81.218,336.344,64.046,358.561,64,384v72
			c0,4.418,3.582,8,8,8h320c4.418,0,8-3.582,8-8v-72C399.954,358.561,382.782,336.344,358.176,329.888z M128,120
			c0-57.438,46.562-104,104-104s104,46.562,104,104v136c0,57.438-46.562,104-104,104s-104-46.562-104-104V120z M340.216,328h-12.448
			c2.831-3.739,5.438-7.641,7.808-11.688L340.216,328z M128.424,316.312c2.37,4.047,4.977,7.949,7.808,11.688h-12.448
			L128.424,316.312z M384,448H80v-64c0.026-22.08,17.92-39.974,40-40h30.696c45.807,42.666,116.802,42.666,162.608,0H344
			c22.08,0.026,39.974,17.92,40,40V448z"/>
	</g>
</g>
<g>
	<g>
		<path d="M232,56c-53.019,0-96,42.981-96,96v48c0.057,52.996,43.004,95.943,96,96c52.996-0.057,95.943-43.004,96-96v-48
			C328,98.981,285.019,56,232,56z M232,72c26.286,0.013,50.885,12.95,65.792,34.6c-3.715-2.164-7.741-3.745-11.936-4.688
			c-35.478-7.824-72.234-7.824-107.712,0c-4.329,0.994-8.461,2.706-12.224,5.064C180.809,85.109,205.545,72.016,232,72z M312,200
			c0,44.183-35.817,80-80,80c-44.183,0-80-35.817-80-80v-12.984l11.392-51.264c2.04-9.082,9.128-16.176,18.208-18.224
			c33.387-7.346,67.976-7.302,101.344,0.128c8.887,1.941,15.896,8.768,18.072,17.6L312,179.128V200z"/>
	</g>
</g>
<g>
	<g>
		<path d="M192,170c-7.732,0-14,6.268-14,14c0.009,7.728,6.272,13.991,14,14c7.732,0,14-6.268,14-14S199.732,170,192,170z M190,184
			c0-1.105,0.895-2,2-2s2,0.895,2,2C194,186.2,190,186.2,190,184z"/>
	</g>
</g>
<g>
	<g>
		<path d="M272,170c-7.732,0-14,6.268-14,14c0.009,7.728,6.272,13.991,14,14c7.732,0,14-6.268,14-14S279.732,170,272,170z M270,184
			c0-1.105,0.895-2,2-2c1.105,0,2,0.895,2,2C274,186.2,270,186.2,270,184z"/>
	</g>
</g>
<g>
	<g>
		<path d="M250,224c0,9.941-8.059,18-18,18c-9.941,0-18-8.059-18-18h-12c0.018,16.561,13.439,29.982,30,30
			c16.561-0.018,29.982-13.439,30-30H250z"/>
	</g>
</g>
<g>
</g>
<g>
</g>
<g>
</g>
<g>
</g>
<g>
</g>
<g>
</g>
<g>
</g>
<g>
</g>
<g>
</g>
<g>
</g>
<g>
</g>
<g>
</g>
<g>
</g>
<g>
</g>
<g>
</g>
</svg>
